# xmcd CD database file
#
# Track frame offsets:
#	150
#	27260
#	42375
#	63530
#	80582
#	98855
#	119545
#	138670
#	157297
#	174747
#	197367
#	213260
#
# Disc length: 3138 seconds
#
# Revision: 0
# Processed by: cddbd v1.5.1PL2 Copyright (c) Steve Scherf et al.
# Submitted via: CDex 1.51
#
DISCID=b00c400c
DTITLE=ポップス・アベニュー演奏 - ドリームズ・カム・トゥルー＆リンドバーグ
DYEAR=1995
DGENRE=JPop
TTITLE0=	SAYONARA
TTITLE1=	晴れたらいいね
TTITLE2=	決戦は金曜日
TTITLE3=	笑顔の行方
TTITLE4=	Eyes to me
TTITLE5=	未来予想図
TTITLE6=	忘れないで
TTITLE7=	恋をしようよYeah!Yeah!
TTITLE8=	今すぐKiss Me
TTITLE9=	Dream On抱きしめて
TTITLE10=	さよならBeautiful Days
TTITLE11=	Magical Dreamer
EXTD=YEAR: 1995
EXTT0=
EXTT1=
EXTT2=
EXTT3=
EXTT4=
EXTT5=
EXTT6=
EXTT7=
EXTT8=
EXTT9=
EXTT10=
EXTT11=
PLAYORDER=
